<svg id="Layer_1" data-name="Layer 1" xmlns="http://www.w3.org/2000/svg" viewBox="0 0 237.1 236.9"><title>level</title><path d="M108.1,237.9c-8.4-1.9-17-3.3-25.1-5.9A118.5,118.5,0,0,1,1.4,118.1C2.3,45.3,68.1-9.5,139.9,2.8c55.8,9.5,97.4,58.5,98.6,113.5,1.2,58.5-40.7,110.1-98,119.8-2.8.5-5.6,1.2-8.3,1.8ZM13.6,118.2c-.1,58.6,47.6,107.1,105.5,107.2,60,.1,108.3-47.6,108.4-107,0-57.7-47.9-106.1-104.5-106.9C63.6,10.6,13.6,58.2,13.6,118.2Z" transform="translate(-1.4 -1)"/><path d="M90,162.3c0,7.9-.2,14.9,0,22,.1,4.3-1.6,6.1-5.9,6-8.2-.2-16.4-.2-24.6.1-3.3.1-4.3-1.3-4.2-4.2s.4-3.8.6-6.4H79.7V159.5c0-7.5.6-8.1,7.8-8.1h20.4v-16c0-12.8-1.2-12.2,12.3-12.1,5.1.1,10.2,0,15.8,0V106.2c-.1-11.6-.7-10.8,11-10.8h15.4l1.5-.4V74.1c.1-6,.8-6.8,6.6-6.8h27.7V77.9H174.4V99.1c-.1,6-1,6.9-7,6.9H146.1c0,7.4.1,14.4,0,21.4s-.6,6.6-6.6,6.7H117.9c0,7.6-.2,14.8.1,22,.2,4.7-1.8,6.3-6.2,6.3C104.7,162.2,97.7,162.3,90,162.3Z" transform="translate(-1.4 -1)"/><path d="M94.5,79.8c-4.4,0-8,.1-11.5-.1s-5.1-1.2-4.8-4.7,2.4-3.7,5.1-3.7c7.8.1,15.7.1,23.6,0,3.4,0,5.1,1.4,5,4.9,0,7.5,0,15,.1,22.6,0,3.6-2.1,4.9-5.2,4.9s-4.7-1.6-4.7-4.9.1-7.3.1-11.8a33.8,33.8,0,0,0-3.4,2.5L64.7,120.6c-1.1,1.1-2.6,2.6-3.8,2.6s-4.3-1.2-6.4-1.8c.6-2,.6-4.6,1.9-5.8,11.3-10.7,22.8-21.1,34.2-31.7A55.6,55.6,0,0,0,94.5,79.8Z" transform="translate(-1.4 -1)"/></svg>