<?xml version="1.0" encoding="utf-8"?>
<!-- Generator: Adobe Illustrator 22.1.0, SVG Export Plug-In . SVG Version: 6.00 Build 0)  -->
<svg version="1.1" id="Layer_1" xmlns="http://www.w3.org/2000/svg" xmlns:xlink="http://www.w3.org/1999/xlink" x="0px" y="0px"
	 viewBox="0 0 2000.2 2022" style="enable-background:new 0 0 2000.2 2022;" xml:space="preserve">
<style type="text/css">
	.st0{fill:#FFFFFF;}
</style>
<title>clock</title>
<g>
	<g>
		<path d="M971.5,1.9c21.8,0,43.5,0,65.3,0c2,1.1,4.3,1.2,6.5,1.3c6.4,0.2,12.8,0.4,19.2,0.6c4.2,0.2,8.3,0.3,12.5,0.6
			c10.5,0.9,21,2,31.5,2.9c17.5,1.4,34.9,3.9,52.3,6.6c26.2,4,52.3,9.1,78.1,15.3c74.2,17.8,145.6,43.7,213.9,77.8
			c179.8,89.9,328.7,231.9,427.2,407.9c44,78.6,76.6,161.6,98,249.1c8.3,34.2,15,68.7,19.5,103.6c2.5,19.3,5.2,38.7,5.4,58.2
			c0,2.2,0.2,4.5,0.5,6.7c0.1,0.9,0.8,1.7,1.2,2.6c0,44.8,0,89.6,0,134.4c-0.4,0.8-1.1,1.7-1.2,2.5c-0.3,2.9-0.5,5.7-0.6,8.6
			c-0.2,5.4-0.1,10.9-0.7,16.3c-1.9,18.1-4,36.2-6.7,54.3c-3.4,22.8-7.5,45.4-12.5,67.9c-14.7,66.4-35.8,130.7-63.9,192.7
			c-70.9,156.5-174.8,286.7-312,390c-141.3,106.3-300.1,170.1-475.4,192.8c-20,2.6-40.1,4.5-60.2,5.6c-20.4,1.1-40.9,2.2-61.4,2.2
			c-18.2,0-36.5-0.6-54.7-1.6c-13.1-0.7-26.2-1.3-39.3-2.6c-18.8-1.8-37.5-4-56.2-6.7c-19.9-2.9-39.8-6.3-59.5-10.5
			c-45.1-9.5-89.4-21.9-132.7-37.7c-176.5-64.3-323.8-169.6-441.6-315.8c-88.3-109.6-150.3-232.8-186.5-368.9
			c-7.6-28.4-13.8-57.2-18.7-86.2c-2.2-13.2-4.4-26.5-5.9-39.8c-1.7-14.6-3.6-29.2-4.9-43.9c-1.3-15-2.6-30-2.7-45
			c0-3.2-0.2-6.4-0.6-9.6c-0.3-2.5-0.9-5.1-2.9-6.9c0-16.6,0-33.3,0-49.9c1.7-1.6,2.4-3.8,2.7-6c0.4-2.5,0.6-5.1,0.6-7.6
			c0.6-20.1,2.1-40.2,4-60.3c1.7-17.8,3.9-35.6,6.6-53.3c3.4-22.4,7.7-44.7,12.6-66.9c15.6-69.8,38.4-137.2,68.6-202
			c62.7-134.2,150.7-249,263.9-344.5c80.3-67.7,169.2-121.3,266.4-161.1C677,55.3,727.8,39.4,779.9,27.4c21.2-4.9,42.5-9.2,64-12.3
			c9.2-1.3,18.3-2.9,27.5-4c14.3-1.8,28.5-3.7,42.9-4.9c15.3-1.4,30.6-2.7,46-2.7c2.6,0,5.1-0.2,7.7-0.4
			C969.1,2.9,970.3,2.3,971.5,1.9z M1879.5,1002.4c-0.1-482.1-389.8-875.2-875-875.2c-484.4,0-874.6,392-875,874.2
			c-0.4,482.7,389.7,875.4,874.5,875.7C1489.3,1877.3,1879.1,1484.4,1879.5,1002.4z"/>
		<path class="st0" d="M1.9,1027.2c2,1.9,2.6,4.4,2.9,6.9c0.3,3.2,0.5,6.4,0.6,9.6c0.2,15.1,1.5,30,2.7,45
			c1.2,14.7,3.2,29.2,4.9,43.9c1.5,13.4,3.7,26.6,5.9,39.8c4.9,29,11.2,57.7,18.7,86.2c36.2,136.1,98.2,259.3,186.5,368.9
			c117.8,146.2,265.1,251.5,441.6,315.8c43.3,15.8,87.6,28.1,132.7,37.7c19.7,4.2,39.6,7.6,59.5,10.5c18.7,2.8,37.4,4.9,56.2,6.7
			c13,1.2,26.2,1.9,39.3,2.6c18.2,1,36.4,1.6,54.7,1.6c20.5,0,40.9-1.1,61.4-2.2c20.1-1.1,40.2-3,60.2-5.6
			c175.3-22.7,334.1-86.5,475.4-192.8c137.2-103.3,241.1-233.5,312-390c28.1-62,49.2-126.3,63.9-192.7c5-22.5,9.1-45.1,12.5-67.9
			c2.7-18,4.8-36.1,6.7-54.3c0.6-5.4,0.4-10.9,0.7-16.3c0.1-2.9,0.3-5.8,0.6-8.6c0.1-0.9,0.8-1.7,1.2-2.5c0,318.6,0,637.3,0,956
			c-666.9,0-1333.8,0-2000.6,0C1.9,1692.6,1.9,1359.9,1.9,1027.2z M50.3,2020.6l0.1,0.4l0.6-0.2L50.3,2020.6z"/>
		<path class="st0" d="M971.5,1.9c-1.2,0.4-2.4,1-3.6,1.1c-2.5,0.3-5.1,0.4-7.7,0.4c-15.4,0-30.7,1.3-46,2.7
			c-14.3,1.3-28.6,3.1-42.9,4.9c-9.2,1.2-18.3,2.7-27.5,4c-21.5,3.2-42.8,7.5-64,12.3c-52.1,12-103,28-152.4,48.2
			c-97.2,39.7-186.2,93.3-266.4,161.1C247.8,332.1,159.8,446.9,97.1,581.1c-30.3,64.8-53.1,132.2-68.6,202
			c-4.9,22.2-9.2,44.4-12.6,66.9c-2.7,17.7-4.9,35.5-6.6,53.3c-1.9,20.1-3.5,40.1-4,60.3c-0.1,2.6-0.3,5.1-0.6,7.6
			c-0.3,2.2-1,4.4-2.7,6c0-325,0-649.9,0-974.9C2.1,2.2,2.2,2,2.4,1.9c0.6-0.1,1.3,0,1.9,0C326.7,1.9,649.1,1.9,971.5,1.9z"/>
		<path class="st0" d="M2002.6,935c-0.4-0.9-1-1.7-1.2-2.6c-0.3-2.2-0.5-4.5-0.5-6.7c-0.2-19.6-2.9-38.9-5.4-58.2
			c-4.5-34.9-11.2-69.4-19.5-103.6c-21.3-87.5-54-170.5-98-249.1c-98.5-176-247.4-318.1-427.2-407.9c-68.3-34.1-139.7-60-213.9-77.8
			c-25.8-6.2-51.8-11.3-78.1-15.3c-17.4-2.7-34.8-5.1-52.3-6.6c-10.5-0.9-21-2-31.5-2.9c-4.1-0.4-8.3-0.5-12.5-0.6
			c-6.4-0.2-12.8-0.4-19.2-0.6c-2.2-0.1-4.5-0.2-6.5-1.3c321.8,0,643.5,0,965.3,0c0.1,0.1,0.4,0.3,0.4,0.5c0.1,0.3,0,0.6,0,1
			C2002.6,313.9,2002.6,624.5,2002.6,935z"/>
		<path class="st0" d="M1879.5,1002.4c-0.4,482-390.1,874.9-875.5,874.7c-484.8-0.2-874.9-392.9-874.5-875.7
			c0.4-482.2,390.6-874.3,875-874.2C1489.7,127.2,1879.4,520.3,1879.5,1002.4z M942.1,751.7c0,80.9,0,161.9,0,242.8
			c0,3.5,0,7,0.1,10.6c0.2,5.5,1,10.8,2.7,16c9.1,28,33.5,41.7,52.7,43c5.1,0.4,10.2,0.5,15.3,0.5c119.3,0,238.7,0,358,0
			c2.9,0,5.8,0.1,8.6,0c5.4-0.3,10.8-0.7,16.1-2.1c33.2-8.8,52.6-42.9,44.6-75.2c-6.8-27.3-29.9-44.2-51.4-46.9
			c-5.4-0.7-10.8-0.9-16.3-0.9c-96.9,0-193.9,0-290.8,0c-17,0-14.5,2.3-14.5-14.8c-0.1-137.2,0-274.5,0-411.7c0-3.5,0-7,0-10.6
			c0-5.8-0.9-11.5-2.5-17c-9-32.2-42.5-53.1-77.6-43.3c-24.9,7-43.1,29.5-44.7,55.3c-0.2,3.8-0.2,7.7-0.2,11.5
			C942.1,589.8,942.1,670.8,942.1,751.7z"/>
		<polygon points="50.3,2020.6 51.1,2020.8 50.5,2021 		"/>
		<path d="M942.1,751.7c0-80.9,0-161.9,0-242.8c0-3.8,0-7.7,0.2-11.5c1.7-25.8,19.9-48.4,44.7-55.3c35.1-9.8,68.6,11.1,77.6,43.3
			c1.6,5.6,2.4,11.2,2.5,17c0,3.5,0,7,0,10.6c0,137.2,0,274.5,0,411.7c0,17.2-2.4,14.8,14.5,14.8c96.9,0.1,193.9,0,290.8,0
			c5.4,0,10.8,0.2,16.3,0.9c21.5,2.7,44.6,19.6,51.4,46.9c8,32.4-11.4,66.5-44.6,75.2c-5.3,1.4-10.7,1.8-16.1,2.1
			c-2.9,0.1-5.8,0-8.6,0c-119.3,0-238.7,0-358,0c-5.1,0-10.2-0.2-15.3-0.5c-19.1-1.3-43.5-15-52.7-43c-1.7-5.2-2.5-10.6-2.7-16
			c-0.1-3.5-0.1-7-0.1-10.6C942.1,913.6,942.1,832.7,942.1,751.7z"/>
	</g>
</g>
</svg>
